<svg width="512" height="512" viewBox="0 0 512 512" fill="none" xmlns="http://www.w3.org/2000/svg">
<rect width="512" height="512" rx="128" fill="url(#paint0_linear_405_4266)"/>
<mask id="mask0_405_4266" style="mask-type:alpha" maskUnits="userSpaceOnUse" x="0" y="0" width="512" height="512">
<rect width="512" height="512" rx="128" fill="white"/>
</mask>
<g mask="url(#mask0_405_4266)">
<circle cx="256" r="512" fill="url(#paint1_radial_405_4266)"/>
</g>
<path d="M137.894 137.997C145.016 133.789 182.677 116.011 200.617 107.647C218.692 99.8239 256.866 83.5294 264.959 80.9396C275.076 77.7023 308.663 63.1344 319.589 93.4842C330.515 123.834 348.32 264.657 343.464 284.89C340.83 295.866 334.561 309.17 319.993 318.478C308.631 325.737 256.227 348.903 228.944 361.777C221.247 365.408 215.04 368.71 213.162 370.275C206.283 376.007 206.283 381.201 206.283 384.843C206.283 394.255 214.781 398.197 221.255 398.197C225.706 398.197 231.659 396.055 239.87 392.936C261.44 384.742 295.292 369.104 309.067 361.777C328.087 351.66 353.985 332.236 360.055 326.166C370.576 315.645 372.195 305.933 373.409 289.746C374.623 273.56 350.748 136.379 349.534 127.476C348.32 118.573 353.176 112.099 358.436 110.885C363.697 109.671 373.409 107.647 377.456 120.597C381.502 133.546 389.596 197.888 390.81 204.767C392.024 211.646 398.903 284.081 400.117 301.482C401.331 318.882 394.452 337.497 380.288 351.66C369.767 362.181 337.799 384.554 299.355 401.029C282.359 408.313 252.819 421.667 222.874 430.165C192.929 438.663 180.384 433.807 168.244 425.309C156.104 416.811 145.178 398.197 140.322 370.275C135.466 342.353 114.019 187.366 115.638 172.394C117.256 157.421 128.992 143.258 137.894 137.997Z" fill="url(#paint2_linear_405_4266)"/>
<path fill-rule="evenodd" clip-rule="evenodd" d="M200.617 107.647C182.677 116.011 145.016 133.789 137.894 137.997C128.992 143.258 117.256 157.421 115.638 172.394C114.019 187.366 135.466 342.353 140.322 370.275C145.178 398.197 156.104 416.811 168.244 425.309C180.384 433.807 192.929 438.663 222.874 430.165C249.438 422.626 275.684 411.267 293.137 403.713C295.358 402.751 297.437 401.852 299.355 401.029C337.799 384.554 369.767 362.181 380.288 351.66C394.452 337.497 401.331 318.882 400.117 301.482C398.903 284.081 392.024 211.646 390.81 204.767C390.5 203.011 389.741 197.51 388.717 190.075C385.727 168.386 380.469 130.24 377.456 120.597C373.409 107.647 363.697 109.671 358.436 110.885C353.176 112.099 348.32 118.573 349.534 127.476C349.786 129.326 351.016 136.712 352.797 147.4C359.585 188.156 374.371 276.923 373.409 289.746C372.195 305.933 370.576 315.645 360.055 326.166C353.985 332.236 328.087 351.66 309.067 361.777C295.292 369.104 261.44 384.742 239.87 392.936C231.659 396.055 225.706 398.197 221.255 398.197C214.781 398.197 206.283 394.255 206.283 384.843C206.283 381.201 206.283 376.007 213.162 370.275C215.04 368.71 221.247 365.408 228.944 361.777C237.026 357.963 247.312 353.247 258.083 348.308C283.672 336.574 311.997 323.587 319.993 318.478C334.561 309.17 340.83 295.866 343.464 284.89C348.32 264.657 330.515 123.834 319.589 93.4842C309.536 65.5605 280.3 75.6603 267.811 79.9748C266.726 80.3496 265.768 80.6808 264.959 80.9396C256.866 83.5294 218.692 99.8239 200.617 107.647ZM185.411 248.817C180.993 245.278 174.111 239.723 167.571 234.416C162.69 230.456 164.02 222.701 169.934 220.572L191.513 212.804C194.877 211.593 197.303 208.632 197.829 205.095L201.699 179.085C202.711 172.278 211.219 169.761 215.773 174.922L230.411 191.511C232.961 194.402 236.981 195.511 240.653 194.335L266.468 186.075C273.351 183.872 279.451 191.11 276.113 197.521L262.796 223.099C260.962 226.621 261.682 230.931 264.562 233.666L286.286 254.294C293.835 261.463 288.532 274.164 278.126 273.836L237.75 272.561C233.395 272.423 229.154 273.963 225.902 276.863L206.429 294.227C198.074 301.676 184.945 294.81 186.298 283.698L189.373 258.455C189.816 254.814 188.274 251.109 185.411 248.817Z" fill="url(#paint3_linear_405_4266)"/>
<path d="M167.571 234.416C174.111 239.723 180.993 245.278 185.411 248.817C188.274 251.109 189.816 254.814 189.373 258.455L186.298 283.698C184.945 294.81 198.074 301.676 206.429 294.227L225.902 276.863C229.154 273.963 233.395 272.423 237.75 272.561L278.126 273.836C288.532 274.164 293.835 261.463 286.286 254.294L264.562 233.666C261.682 230.931 260.962 226.621 262.796 223.099L276.113 197.521C279.451 191.11 273.351 183.872 266.468 186.075L240.653 194.335C236.981 195.511 232.961 194.402 230.411 191.511L215.773 174.922C211.219 169.761 202.711 172.278 201.699 179.085L197.829 205.095C197.303 208.631 194.877 211.593 191.513 212.804L169.934 220.572C164.02 222.701 162.69 230.456 167.571 234.416Z" fill="url(#paint4_linear_405_4266)"/>
<defs>
<linearGradient id="paint0_linear_405_4266" x1="256" y1="512" x2="256" y2="-3.62396e-05" gradientUnits="userSpaceOnUse">
<stop stop-color="#233EDB"/>
<stop offset="1" stop-color="#3C65FD"/>
</linearGradient>
<radialGradient id="paint1_radial_405_4266" cx="0" cy="0" r="1" gradientUnits="userSpaceOnUse" gradientTransform="translate(256) rotate(90) scale(512)">
<stop stop-color="white" stop-opacity="0.05"/>
<stop offset="1" stop-color="white" stop-opacity="0"/>
</radialGradient>
<linearGradient id="paint2_linear_405_4266" x1="257.902" y1="74.6055" x2="257.902" y2="434.605" gradientUnits="userSpaceOnUse">
<stop stop-color="white" stop-opacity="0.9"/>
<stop offset="1" stop-color="white" stop-opacity="0.45"/>
</linearGradient>
<linearGradient id="paint3_linear_405_4266" x1="257.902" y1="74.6055" x2="257.902" y2="434.605" gradientUnits="userSpaceOnUse">
<stop stop-color="white" stop-opacity="0.9"/>
<stop offset="1" stop-color="white" stop-opacity="0.6"/>
</linearGradient>
<linearGradient id="paint4_linear_405_4266" x1="232.181" y1="161.873" x2="232.181" y2="315.646" gradientUnits="userSpaceOnUse">
<stop stop-color="white" stop-opacity="0"/>
<stop offset="1" stop-color="white" stop-opacity="0.15"/>
</linearGradient>
</defs>
</svg>
